<?xml version="1.0" standalone="no"?>
<!DOCTYPE svg PUBLIC "-//W3C//DTD SVG 20010904//EN"
 "http://www.w3.org/TR/2001/REC-SVG-20010904/DTD/svg10.dtd">
<svg version="1.0" xmlns="http://www.w3.org/2000/svg"
 width="165.000000pt" height="165.000000pt" viewBox="0 0 165.000000 165.000000"
 preserveAspectRatio="xMidYMid meet">
<metadata>
Created by potrace 1.11, written by Peter Selinger 2001-2013
</metadata>
<g transform="translate(0.000000,165.000000) scale(0.100000,-0.100000)"
fill="#000000" stroke="none">
<path d="M707 1609 c-322 -49 -582 -286 -662 -604 -20 -75 -25 -232 -12 -323
17 -121 86 -270 172 -375 205 -249 543 -350 851 -256 480 147 708 697 472
1139 -114 215 -314 364 -548 411 -69 13 -210 18 -273 8z m163 -88 c0 -3 -7
-15 -15 -25 -26 -34 -18 -75 21 -114 36 -36 36 -36 16 -53 -35 -28 -62 -82
-62 -125 0 -70 27 -128 98 -209 103 -118 114 -139 108 -209 -5 -73 -18 -87
-49 -58 -41 39 -87 26 -87 -24 0 -42 -13 -44 -30 -5 -22 54 -2 96 66 137 18
11 18 12 -1 34 -11 12 -31 26 -44 31 -14 6 -21 15 -18 23 8 21 -13 83 -35 103
-19 17 -20 16 -38 -7 -22 -28 -35 -74 -25 -89 3 -6 -12 -22 -35 -36 -48 -30
-50 -48 -11 -71 48 -28 68 -82 46 -125 -17 -32 -36 -39 -28 -10 14 53 -47 81
-88 40 -27 -27 -40 -15 -46 45 -8 65 16 119 87 196 127 138 150 257 68 343
-22 23 -34 43 -28 45 24 8 59 49 64 75 2 14 -4 41 -13 61 -17 32 -17 35 -2 38
23 5 81 -3 81 -11z m-168 -26 c7 -33 -32 -67 -104 -91 -79 -25 -149 -61 -190
-94 -80 -66 -119 -214 -84 -319 21 -65 21 -66 -9 -47 -56 37 -132 24 -173 -28
-24 -31 -32 -25 -26 17 20 140 90 272 204 388 72 73 101 94 180 132 82 40 145
62 186 66 7 1 14 -10 16 -24z m386 -16 c227 -90 412 -319 438 -544 l6 -50 -36
38 c-45 46 -112 54 -164 21 -13 -9 -25 -14 -27 -12 -2 2 3 24 12 48 8 25 15
75 15 113 0 129 -68 219 -211 277 -165 68 -190 87 -176 131 8 25 35 21 143
-22z m-361 -204 c36 -31 38 -36 37 -88 0 -41 -5 -62 -19 -78 -45 -49 -112 -63
-151 -31 -44 35 -52 88 -19 121 20 21 50 3 50 -30 0 -19 5 -24 25 -24 21 0 26
5 28 31 7 71 -88 114 -147 67 -45 -36 -45 -132 -1 -183 11 -12 17 -26 15 -31
-3 -4 -30 -15 -60 -24 -35 -10 -55 -21 -55 -30 0 -31 -20 -13 -31 28 -30 110
19 249 104 294 77 39 163 31 224 -22z m422 20 c79 -40 124 -173 99 -291 -11
-48 -17 -53 -35 -25 -7 11 -34 24 -62 31 -28 7 -51 16 -51 21 0 4 11 25 25 45
29 43 33 100 10 144 -31 60 -141 54 -163 -9 -12 -35 2 -71 28 -71 20 0 24 8
21 41 -2 22 25 32 50 19 14 -8 19 -21 19 -49 0 -31 -6 -44 -31 -65 -95 -80
-232 56 -163 162 24 37 42 50 93 65 49 15 110 8 160 -18z m-569 -354 c0 -5 -7
-24 -15 -44 -14 -35 -14 -110 1 -173 7 -29 6 -29 -12 -9 -69 73 -135 188 -117
205 4 5 32 11 62 14 29 3 56 8 59 11 8 8 22 6 22 -4z m564 -6 c11 -1 31 -3 44
-4 15 -1 22 -7 22 -21 0 -31 -43 -110 -88 -160 l-40 -45 5 86 c4 66 2 92 -10
116 -19 36 -14 45 21 36 14 -3 34 -7 46 -8z m-818 -67 c17 -13 37 -30 45 -39
8 -8 40 -43 73 -76 l59 -61 -39 -25 c-22 -13 -55 -39 -74 -57 -44 -40 -93 -62
-126 -56 -42 8 -74 34 -73 59 1 15 3 17 6 5 5 -21 32 -31 48 -18 36 30 14 90
-33 90 -14 0 -38 -11 -53 -26 l-27 -26 -11 38 c-12 44 -15 104 -4 104 4 0 17
-10 29 -21 40 -38 105 0 89 51 -8 27 -39 25 -58 -2 l-16 -23 0 23 c-1 13 12
37 28 53 37 37 93 40 137 7z m1108 12 c32 -12 60 -54 51 -77 -6 -16 -8 -15
-16 5 -6 17 -15 22 -31 20 -29 -4 -36 -43 -12 -69 22 -25 48 -24 73 2 11 12
24 18 30 15 10 -6 5 -84 -8 -119 -6 -17 -9 -16 -35 8 -38 36 -87 32 -100 -8
-8 -23 -6 -31 11 -49 18 -18 24 -19 37 -9 9 8 13 17 10 22 -3 5 0 9 5 9 29 0
-13 -69 -43 -71 -6 0 -20 -2 -30 -4 -30 -6 -85 21 -133 65 -23 22 -54 46 -68
52 -14 6 -25 14 -25 17 0 10 164 179 185 190 25 13 66 14 99 1z m-736 -203 c4
-19 -6 -21 -27 -8 -16 10 -5 34 12 28 7 -2 13 -11 15 -20z m276 17 c21 -8 20
-20 -1 -28 -17 -7 -36 12 -27 26 6 10 8 10 28 2z m-331 -85 c79 -41 128 -128
135 -240 4 -67 1 -84 -20 -130 -14 -30 -40 -69 -58 -88 -34 -35 -48 -36 -114
-11 l-29 11 26 27 c33 34 34 68 5 99 l-21 23 22 0 c35 0 79 37 90 76 17 61 -4
131 -47 156 -49 29 -94 27 -127 -6 -25 -25 -26 -55 -4 -82 26 -32 87 -6 73 31
-11 27 28 15 42 -14 26 -51 -20 -110 -88 -113 -74 -3 -126 63 -114 144 16 104
135 165 229 117z m213 -4 c21 -22 24 -31 19 -68 -7 -49 -29 -87 -50 -87 -23 0
-55 60 -55 103 0 24 7 44 20 57 26 26 36 25 66 -5z m297 0 c94 -45 110 -201
25 -246 -51 -27 -143 1 -154 46 -8 33 14 85 36 85 13 0 16 -6 13 -25 -4 -20 0
-25 22 -31 32 -8 58 5 63 30 13 63 -47 106 -114 83 -56 -18 -79 -56 -79 -129
0 -55 3 -62 33 -89 18 -17 44 -29 59 -29 l27 0 -21 -20 c-35 -32 -38 -57 -9
-95 14 -18 26 -36 26 -38 0 -3 -21 -10 -46 -16 -57 -15 -81 -2 -124 66 -90
142 -38 348 105 414 44 20 87 18 138 -6z m-798 -127 c-5 -81 26 -131 113 -181
30 -17 58 -40 63 -54 11 -30 12 -70 1 -77 -17 -10 -138 71 -207 139 -101 99
-171 213 -117 190 36 -16 80 -16 108 -1 40 21 41 20 39 -16z m976 16 c29 -15
67 -15 102 1 32 13 31 -3 -4 -61 -59 -97 -170 -199 -276 -252 -35 -18 -42 -19
-47 -6 -6 17 19 97 32 102 5 1 33 17 62 35 63 38 90 83 90 149 0 27 2 48 5 48
4 0 19 -7 36 -16z m-490 -291 c7 -16 24 -42 36 -59 13 -17 20 -34 16 -37 -9
-10 -143 -9 -143 1 0 4 11 23 24 42 13 19 26 45 30 58 10 29 20 28 37 -5z"/>
</g>
</svg>
